<svg width="48" height="48" viewBox="0 0 48 48" fill="none" xmlns="http://www.w3.org/2000/svg">
<rect x="0.5" y="0.5" width="47" height="47" rx="11.5" stroke="#2D3440"/>
<path fill-rule="evenodd" clip-rule="evenodd" d="M16.533 15.4673C16.2501 15.4673 15.9788 15.5797 15.7788 15.7797C15.5787 15.9798 15.4663 16.2511 15.4663 16.534V31.0255L17.9121 28.5797C18.1121 28.3797 18.3834 28.2673 18.6663 28.2673H31.4663C31.7492 28.2673 32.0205 28.1549 32.2206 27.9549C32.4206 27.7548 32.533 27.4835 32.533 27.2006V16.534C32.533 16.2511 32.4206 15.9798 32.2206 15.7797C32.0205 15.5797 31.7492 15.4673 31.4663 15.4673H16.533ZM14.2703 14.2712C14.8704 13.6711 15.6843 13.334 16.533 13.334H31.4663C32.315 13.334 33.1289 13.6711 33.7291 14.2712C34.3292 14.8714 34.6663 15.6853 34.6663 16.534V27.2006C34.6663 28.0493 34.3292 28.8633 33.7291 29.4634C33.1289 30.0635 32.315 30.4006 31.4663 30.4006H19.1082L15.1539 34.3549C14.8489 34.6599 14.3901 34.7512 13.9915 34.5861C13.5929 34.421 13.333 34.032 13.333 33.6006V16.534C13.333 15.6853 13.6701 14.8714 14.2703 14.2712Z" fill="black"/>
</svg>
