<svg width="88" height="48" viewBox="0 0 88 48" fill="none" xmlns="http://www.w3.org/2000/svg">
<rect width="88" height="48" rx="12" fill="#CC525F"/>
<path fill-rule="evenodd" clip-rule="evenodd" d="M33.1722 19.4672C33.2046 19.4712 33.2367 19.4767 33.2686 19.4837C34.6617 19.7933 35.9076 20.5686 36.8006 21.6818C37.6936 22.795 38.1803 24.1795 38.1802 25.6066V26.6492C38.1802 27.3805 37.8897 28.0819 37.3726 28.599C36.8555 29.1161 36.1542 29.4066 35.4229 29.4066H31.0296C30.2983 29.4066 29.597 29.1161 29.0799 28.599C28.5628 28.0819 28.2723 27.3805 28.2723 26.6492C28.2723 26.4484 28.1925 26.2558 28.0504 26.1137C27.9084 25.9717 27.7158 25.8919 27.5149 25.8919H20.4856C20.2848 25.8919 20.0921 25.9717 19.9501 26.1137C19.8081 26.2558 19.7283 26.4484 19.7283 26.6492C19.7283 27.3805 19.4378 28.0819 18.9207 28.599C18.4036 29.1161 17.7023 29.4066 16.971 29.4066H12.5776C11.8464 29.4066 11.145 29.1161 10.6279 28.599C10.1108 28.0819 9.82031 27.3805 9.82031 26.6492V25.6069M33.1722 19.4672C27.1134 18.3012 20.8879 18.3 14.8287 19.4637C14.7962 19.4676 14.7639 19.4731 14.732 19.4802C13.3381 19.7899 12.0917 20.5659 11.1986 21.68C10.3057 22.7938 9.81948 24.1793 9.82031 25.6069M14.9618 20.4564V20.5144L15.048 20.9025L14.9618 20.4564ZM15.1511 21.4359C14.2076 21.649 13.3643 22.176 12.7591 22.9309C12.1508 23.6897 11.8196 24.6334 11.8203 25.6059L11.8203 26.6492C11.8203 26.8501 11.9001 27.0427 12.0421 27.1848C12.1842 27.3268 12.3768 27.4066 12.5776 27.4066H16.971C17.1718 27.4066 17.3644 27.3268 17.5065 27.1848C17.6485 27.0427 17.7283 26.8501 17.7283 26.6492C17.7283 25.918 18.0188 25.2166 18.5359 24.6995C19.053 24.1824 19.7543 23.8919 20.4856 23.8919H27.5149C28.2462 23.8919 28.9476 24.1824 29.4647 24.6995C29.9818 25.2166 30.2723 25.918 30.2723 26.6492C30.2723 26.8501 30.3521 27.0427 30.4941 27.1848C30.6361 27.3268 30.8287 27.4066 31.0296 27.4066H35.4229C35.6238 27.4066 35.8164 27.3268 35.9584 27.1848C36.1004 27.0427 36.1802 26.8501 36.1802 26.6492V25.6065C36.1803 24.6345 35.8488 23.6915 35.2406 22.9333C34.6442 22.1899 33.8167 21.6677 32.8902 21.4488C32.8763 21.4468 32.8625 21.4444 32.8486 21.4417C27.004 20.3097 20.9966 20.3085 15.1515 21.4383L15.1511 21.4359Z" fill="white" fill-opacity="0.98"/>
<line x1="48.5" y1="11.5" x2="48.5" y2="36.5" stroke="black" stroke-opacity="0.2"/>
<path d="M68 19.0031C69.1226 19.0031 70 18.1219 70 16.9969C70 15.8906 69.1038 15 68 15C66.9057 15 66 15.8906 66 16.9969C66 18.0938 66.9057 19.0031 68 19.0031ZM68 25.9781C69.1226 25.9781 70 25.1063 70 24C70 22.9031 69.1038 22.0125 68 22.0125C66.9057 22.0125 66 22.9031 66 24C66 25.0875 66.9057 25.9781 68 25.9781ZM68 33C69.1226 33 70 32.1188 70 31.0031C70 29.8875 69.1038 28.9969 68 28.9969C66.9057 28.9969 66 29.8875 66 31.0031C66 32.0906 66.9057 33 68 33Z" fill="white" fill-opacity="0.98"/>
</svg>
