<svg width="48" height="48" viewBox="0 0 48 48" fill="none" xmlns="http://www.w3.org/2000/svg">
<rect x="0.5" y="0.5" width="47" height="47" rx="11.5" stroke="#2D3440"/>
<path fill-rule="evenodd" clip-rule="evenodd" d="M24.7889 12.2883C24.6619 12.2883 24.5361 12.3134 24.4188 12.362C24.3014 12.4106 24.1948 12.4818 24.105 12.5716C24.0152 12.6614 23.9439 12.768 23.8953 12.8854C23.8467 13.0027 23.8217 13.1285 23.8217 13.2555V23.3327C23.8217 23.7807 23.4585 24.1438 23.0105 24.1438C22.5626 24.1438 22.1994 23.7807 22.1994 23.3327V15.6266C22.1994 15.3701 22.0975 15.1241 21.9161 14.9427C21.7347 14.7613 21.4887 14.6594 21.2322 14.6594C20.9757 14.6594 20.7297 14.7613 20.5483 14.9427C20.367 15.1241 20.2651 15.3701 20.2651 15.6266L20.2651 24.5182C20.2651 24.8463 20.0674 25.1421 19.7643 25.2677C19.4612 25.3932 19.1123 25.3238 18.8803 25.0918L17.1379 23.3494C16.9168 23.1287 16.6279 22.9878 16.3178 22.9497C16.0076 22.9116 15.6935 22.9783 15.4254 23.1391C15.2094 23.2686 15.0522 23.4774 14.9876 23.7209C14.9231 23.9644 14.9561 24.2234 15.0796 24.443C17.3161 28.4185 18.5967 30.6494 18.948 31.1888C19.0244 31.3064 19.1017 31.4246 19.1787 31.5418C19.7526 32.4131 20.534 33.1283 21.4526 33.6232C22.3708 34.1178 23.3975 34.3768 24.4404 34.377C24.4411 34.377 24.4418 34.377 24.4426 34.377H26.5672C28.2386 34.377 29.8416 33.713 31.0235 32.5312C32.2054 31.3493 32.8693 29.7463 32.8693 28.0749V17.9977C32.8693 17.7412 32.7674 17.4952 32.5861 17.3138C32.4047 17.1324 32.1587 17.0305 31.9022 17.0305C31.6457 17.0305 31.3997 17.1324 31.2183 17.3138C31.0377 17.4944 30.9359 17.7391 30.935 17.9944C30.935 17.9955 30.935 17.9966 30.935 17.9977V23.3327C30.935 23.7807 30.5718 24.1438 30.1238 24.1438C29.6759 24.1438 29.3127 23.7807 29.3127 23.3327V17.9977C29.3127 17.9959 29.3127 17.9941 29.3127 17.9922L29.3127 15.6266C29.3127 15.3701 29.2108 15.1241 29.0294 14.9427C28.848 14.7613 28.602 14.6594 28.3455 14.6594C28.089 14.6594 27.843 14.7613 27.6616 14.9427C27.4951 15.1093 27.3956 15.3303 27.3804 15.5639C27.3818 15.5417 27.3818 15.5798 27.3815 15.7014C27.3814 15.7411 27.3813 15.7896 27.3812 15.8479L27.3787 19.6013L27.3786 19.6367L27.3786 19.6405L27.3784 19.6517C27.3784 19.6517 27.3784 19.6516 27.3784 19.6517L27.3784 23.3327C27.3784 23.7807 27.0152 24.1438 26.5672 24.1438C26.1192 24.1438 25.756 23.7807 25.756 23.3327V13.2555C25.756 13.1285 25.731 13.0027 25.6824 12.8854C25.6338 12.768 25.5626 12.6614 25.4728 12.5716C25.3829 12.4818 25.2763 12.4106 25.159 12.362C25.0416 12.3134 24.9159 12.2883 24.7889 12.2883ZM27.3786 19.6251C27.3786 19.627 27.3786 19.6268 27.3786 19.6251ZM27.3782 13.2246C27.3742 12.8951 27.3074 12.5692 27.1813 12.2646C27.0511 11.9504 26.8604 11.6649 26.6199 11.4245C26.3795 11.184 26.094 10.9933 25.7798 10.8631C25.4657 10.733 25.1289 10.666 24.7889 10.666C24.4488 10.666 24.1121 10.733 23.7979 10.8631C23.4837 10.9933 23.1983 11.184 22.9578 11.4245C22.7174 11.6649 22.5266 11.9504 22.3965 12.2646C22.2703 12.5692 22.2035 12.8951 22.1996 13.2246C21.895 13.1019 21.5669 13.0371 21.2322 13.0371C20.5454 13.0371 19.8868 13.3099 19.4012 13.7956C18.9156 14.2812 18.6427 14.9398 18.6427 15.6266L18.6427 22.5599L18.2847 22.2019C17.8077 21.7254 17.1848 21.4216 16.5156 21.3395C15.8465 21.2573 15.1691 21.401 14.591 21.7478M27.3782 13.2246C27.6828 13.1019 28.0108 13.0371 28.3455 13.0371C29.0323 13.0371 29.691 13.3099 30.1766 13.7956C30.6549 14.2739 30.9268 14.9201 30.9348 15.5957C31.2394 15.473 31.5675 15.4082 31.9022 15.4082C32.5889 15.4082 33.2476 15.681 33.7332 16.1667C34.2188 16.6523 34.4917 17.3109 34.4917 17.9977V28.0749C34.4917 30.1766 33.6568 32.1922 32.1706 33.6783C30.6845 35.1645 28.6689 35.9994 26.5672 35.9994H24.4428C24.4428 35.9994 24.4429 35.9994 24.4428 35.9994H24.1961C24.1567 35.9994 24.1179 35.9965 24.08 35.9911C22.8931 35.9369 21.7319 35.6164 20.6832 35.0514C19.5278 34.429 18.5451 33.5294 17.8233 32.4333C17.7447 32.3138 17.666 32.1934 17.5881 32.0735C17.1991 31.4759 15.8834 29.1806 13.6657 25.2384C13.335 24.6507 13.2467 23.9571 13.4195 23.3052C13.5922 22.6534 14.0127 22.0946 14.591 21.7478" fill="black"/>
</svg>
