<svg width="48" height="48" viewBox="0 0 48 48" fill="none" xmlns="http://www.w3.org/2000/svg">
<rect x="0.5" y="0.5" width="47" height="47" rx="11.5" stroke="#2D3440"/>
<path d="M32.3568 29.2374H21.833C21.3554 29.2396 20.8821 29.1473 20.4402 28.966C19.9983 28.7847 19.5966 28.5179 19.2581 28.181C18.9196 27.844 18.651 27.4435 18.4678 27.0024C18.2845 26.5613 18.1902 26.0884 18.1902 25.6108V18.3251C18.1901 17.3574 18.5734 16.4292 19.2561 15.7434C19.9388 15.0577 20.8654 14.6703 21.833 14.666H32.3568C33.3245 14.6703 34.251 15.0577 34.9337 15.7434C35.6164 16.4292 35.9997 17.3574 35.9997 18.3251V25.6108C35.9997 26.0884 35.9053 26.5613 35.7221 27.0024C35.5388 27.4435 35.2702 27.844 34.9317 28.181C34.5933 28.5179 34.1915 28.7847 33.7497 28.966C33.3078 29.1473 32.8344 29.2396 32.3568 29.2374ZM21.833 17.0946C21.5095 17.0988 21.2007 17.2304 20.9734 17.4607C20.7461 17.691 20.6187 18.0015 20.6187 18.3251V25.6108C20.623 25.93 20.7528 26.2347 20.9801 26.459C21.2073 26.6832 21.5138 26.8089 21.833 26.8089H32.3568C32.6761 26.8089 32.9825 26.6832 33.2098 26.459C33.437 26.2347 33.5669 25.93 33.5711 25.6108V18.3251C33.5711 18.0015 33.4437 17.691 33.2165 17.4607C32.9892 17.2304 32.6804 17.0988 32.3568 17.0946H21.833Z" fill="black"/>
<path d="M30.333 32.8965C30.3288 33.2157 30.1989 33.5204 29.9717 33.7447C29.7444 33.9689 29.438 34.0946 29.1187 34.0946H16.1663C15.4177 34.0946 14.6995 33.7983 14.1686 33.2705C13.6377 32.7426 13.3373 32.0261 13.333 31.2774V21.5632C13.333 21.2396 13.4604 20.9291 13.6877 20.6988C13.9149 20.4685 14.2238 20.3369 14.5473 20.3327C14.8708 20.3369 15.1797 20.4685 15.4069 20.6988C15.6342 20.9291 15.7616 21.2396 15.7616 21.5632V31.2774C15.7658 31.382 15.8102 31.4808 15.8857 31.5532C15.9612 31.6257 16.0617 31.6661 16.1663 31.666H29.1187C29.4423 31.6703 29.7511 31.8018 29.9784 32.0321C30.2056 32.2624 30.333 32.5729 30.333 32.8965Z" fill="black"/>
</svg>
