<svg width="48" height="48" viewBox="0 0 48 48" fill="none" xmlns="http://www.w3.org/2000/svg">
<rect x="0.5" y="0.5" width="47" height="47" rx="11.5" fill="#F3F4F6"/>
<rect x="0.5" y="0.5" width="47" height="47" rx="11.5" stroke="#2D3440"/>
<path fill-rule="evenodd" clip-rule="evenodd" d="M10.9921 10.9911C11.4255 10.5577 12.1256 10.5577 12.5591 10.9911L21.3606 19.7926C21.3953 19.82 21.4288 19.8498 21.4609 19.8819L27.151 25.572C27.1828 25.6037 27.2122 25.6369 27.2393 25.6713L30.0957 28.5277C30.1792 28.5751 30.258 28.6345 30.3294 28.7059C30.402 28.7785 30.4627 28.8585 30.5115 28.9435L37.0086 35.4406C37.442 35.874 37.442 36.5742 37.0086 37.0076C36.5752 37.441 35.875 37.441 35.4416 37.0076L29.4782 31.0443C28.3951 31.8939 27.1282 32.4843 25.7729 32.7623C25.5553 32.807 25.3366 32.8434 25.1172 32.8716V35.1071H28.4512C29.0625 35.1071 29.5626 35.6072 29.5626 36.2185C29.5626 36.8297 29.0625 37.3298 28.4512 37.3298H24.0244C24.0182 37.3299 24.0121 37.33 24.0059 37.33C23.9997 37.33 23.9936 37.3299 23.9874 37.3298H19.5605C18.9493 37.3298 18.4491 36.8408 18.4491 36.2185C18.4491 35.6072 18.9493 35.1071 19.5605 35.1071H22.8946V32.8777C22.1097 32.7809 21.336 32.5792 20.5941 32.2733C18.9604 31.5954 17.5601 30.4507 16.5821 28.9727C15.6152 27.4946 15.104 25.7609 15.1151 23.9938V21.7712C15.1151 21.1599 15.6152 20.6598 16.2265 20.6598C16.8377 20.6598 17.3378 21.1599 17.3378 21.7712V24.005C17.3267 25.3386 17.7157 26.6388 18.4492 27.7391C19.1827 28.8393 20.2384 29.7061 21.4609 30.2174C22.171 30.5116 22.9178 30.677 23.6719 30.7135C23.7774 30.68 23.8896 30.6619 24.0059 30.6619C24.1209 30.6619 24.2319 30.6796 24.3364 30.7124C24.6719 30.695 25.0072 30.6523 25.3395 30.5841C26.2658 30.3941 27.1357 30.0123 27.8969 29.4629L26.2613 27.8273C25.8346 28.0776 25.3663 28.2554 24.8727 28.3503C24.5838 28.417 24.2949 28.4392 24.0059 28.4392C23.428 28.4392 22.8501 28.3281 22.3055 28.0947C21.4943 27.7613 20.8052 27.1945 20.3162 26.461C19.8161 25.7387 19.5605 24.8829 19.5605 24.005V21.1265L10.9921 12.5581C10.5586 12.1247 10.5586 11.4245 10.9921 10.9911ZM24.5746 26.1406L21.7948 23.3608L21.7832 23.3493V23.9939C21.7832 24.4384 21.9166 24.8607 22.1611 25.2274C22.4056 25.5942 22.7501 25.872 23.1613 26.0498C23.5614 26.2165 24.0059 26.261 24.4393 26.1721L24.4394 26.1721C24.4814 26.1616 24.5233 26.1511 24.5746 26.1406ZM27.3399 22.149C26.7287 22.149 26.2286 21.6489 26.2286 21.0377V15.1031C26.2286 14.5474 26.0285 14.0251 25.6507 13.6139C25.2839 13.2027 24.7727 12.9471 24.2282 12.8915C23.6836 12.836 23.1279 12.9805 22.6834 13.3139C22.2389 13.6361 21.9388 14.1251 21.8277 14.6586C21.7054 15.2587 21.1164 15.6477 20.5163 15.5254C19.9162 15.4032 19.5272 14.8253 19.6494 14.2252C19.8717 13.1472 20.4829 12.1914 21.372 11.5357C22.2611 10.88 23.3613 10.58 24.4616 10.6911C25.5618 10.8022 26.5731 11.3134 27.3177 12.1358C28.0401 12.9471 28.4513 14.0029 28.4513 15.1142V21.0488C28.4513 21.66 27.9512 22.149 27.3399 22.149ZM32.8966 21.7712C32.8966 21.1599 32.3965 20.6598 31.7853 20.6598C31.174 20.6598 30.6739 21.1599 30.6739 21.7712V23.9938C30.6739 24.3939 30.6406 24.7829 30.5628 25.1719C30.4517 25.772 30.8629 26.3499 31.463 26.461C32.0631 26.5722 32.641 26.161 32.7521 25.5608C32.8522 25.0385 32.8966 24.5162 32.8966 23.9938V21.7712Z" fill="black"/>
</svg>
