<svg width="32" height="32" viewBox="0 0 32 32" fill="none" xmlns="http://www.w3.org/2000/svg">
<path fill-rule="evenodd" clip-rule="evenodd" d="M9.067 10.6673C9.067 8.90001 10.4997 7.46732 12.267 7.46732C14.0343 7.46732 15.467 8.90001 15.467 10.6673C15.467 12.4346 14.0343 13.8673 12.267 13.8673C10.4997 13.8673 9.067 12.4346 9.067 10.6673ZM12.267 5.33398C9.32148 5.33398 6.93367 7.7218 6.93367 10.6673C6.93367 13.6128 9.32148 16.0006 12.267 16.0006C15.2125 16.0006 17.6003 13.6128 17.6003 10.6673C17.6003 7.7218 15.2125 5.33398 12.267 5.33398ZM8.00032 18.134C6.58584 18.134 5.22928 18.6959 4.22909 19.6961C3.2289 20.6963 2.66699 22.0528 2.66699 23.4673V25.6006C2.66699 26.1897 3.14455 26.6673 3.73366 26.6673C4.32276 26.6673 4.80033 26.1897 4.80033 25.6006V23.4673C4.80033 22.6186 5.13747 21.8047 5.73758 21.2046C6.3377 20.6044 7.15163 20.2673 8.00032 20.2673H16.5337C17.3823 20.2673 18.1963 20.6044 18.7964 21.2046C19.3965 21.8047 19.7337 22.6186 19.7337 23.4673V25.6006C19.7337 26.1897 20.2112 26.6673 20.8003 26.6673C21.3894 26.6673 21.867 26.1897 21.867 25.6006V23.4673C21.867 22.0528 21.3051 20.6963 20.3049 19.6961C19.3047 18.6959 17.9481 18.134 16.5337 18.134H8.00032ZM22.9675 19.0727C23.1148 18.5023 23.6966 18.1593 24.267 18.3066C25.4112 18.602 26.4248 19.269 27.1488 20.203C27.8728 21.1369 28.2661 22.2849 28.267 23.4666V25.6007C28.267 26.1898 27.7894 26.6674 27.2003 26.6674C26.6112 26.6674 26.1337 26.1898 26.1337 25.6007V23.4682C26.1331 22.7593 25.8971 22.0703 25.4627 21.51C25.0284 20.9496 24.4202 20.5494 23.7337 20.3722C23.1633 20.2249 22.8202 19.6431 22.9675 19.0727ZM19.9982 5.50594C19.4275 5.35982 18.8464 5.704 18.7003 6.2747C18.5542 6.84539 18.8984 7.42649 19.4691 7.57261C20.1574 7.74885 20.7675 8.14917 21.2032 8.71045C21.6389 9.27174 21.8754 9.96207 21.8754 10.6726C21.8754 11.3831 21.6389 12.0735 21.2032 12.6348C20.7675 13.196 20.1574 13.5964 19.4691 13.7726C18.8984 13.9187 18.5542 14.4998 18.7003 15.0705C18.8464 15.6412 19.4275 15.9854 19.9982 15.8393C21.1455 15.5455 22.1623 14.8783 22.8884 13.9429C23.6146 13.0074 24.0087 11.8568 24.0087 10.6726C24.0087 9.48838 23.6146 8.33783 22.8884 7.40235C22.1623 6.46687 21.1455 5.79967 19.9982 5.50594Z" fill="#5840BA"/>
</svg>
