<svg width="32" height="32" viewBox="0 0 32 32" fill="none" xmlns="http://www.w3.org/2000/svg">
<path d="M15.9889 27.4525C22.2643 27.4525 27.444 22.2728 27.444 16.0085C27.444 9.74414 22.2533 4.56445 15.9779 4.56445C9.71354 4.56445 4.54492 9.74414 4.54492 16.0085C4.54492 22.2728 9.72461 27.4525 15.9889 27.4525ZM15.9889 25.1725C10.9089 25.1725 6.84701 21.0885 6.84701 16.0085C6.84701 10.9284 10.9089 6.85547 15.9779 6.85547C21.0579 6.85547 25.1419 10.9284 25.153 16.0085C25.1641 21.0885 21.069 25.1725 15.9889 25.1725ZM16 20.347C18.4017 20.347 20.3385 18.4102 20.3385 15.9974C20.3385 13.6068 18.4017 11.6589 16 11.6589C13.5872 11.6589 11.6504 13.6068 11.6504 15.9974C11.6504 18.4102 13.5872 20.347 16 20.347Z" fill="black"/>
</svg>
