<svg width="48" height="48" viewBox="0 0 48 48" fill="none" xmlns="http://www.w3.org/2000/svg">
<rect x="0.5" y="0.5" width="47" height="47" rx="11.5" stroke="black"/>
<path d="M36.5331 18.6667C36.5331 16.6416 34.8914 15 32.8664 15H15.6667C13.6416 15 12 16.6416 12 18.6667V28.8537C12 30.8788 13.6416 32.5204 15.6667 32.5204H19.7665C20.3188 32.5204 20.7665 32.0727 20.7665 31.5204C20.7665 30.9681 20.3188 30.5204 19.7665 30.5204H15.6667C14.7462 30.5204 14 29.7742 14 28.8537L14 18.6667C14 17.7462 14.7462 17 15.6667 17L32.8664 17C33.7869 17 34.5331 17.7462 34.5331 18.6667V28.8537C34.5331 29.7742 33.7869 30.5204 32.8664 30.5204H29.2665C28.7142 30.5204 28.2665 30.9681 28.2665 31.5204C28.2665 32.0727 28.7142 32.5204 29.2665 32.5204H32.8664C34.8914 32.5204 36.5331 30.8788 36.5331 28.8537V18.6667Z" fill="black"/>
<path d="M18.9436 25.7427C18.4618 26.2244 18.4618 27.0055 18.9436 27.4873C19.4253 27.969 20.2064 27.969 20.6882 27.4873L23.2083 24.9671V34.0853C23.2083 34.7666 23.7606 35.3189 24.4419 35.3189C25.1232 35.3189 25.6756 34.7666 25.6756 34.0853L25.6756 24.9671L28.1957 27.4873C28.6775 27.969 29.4586 27.969 29.9403 27.4873C30.4221 27.0055 30.4221 26.2244 29.9403 25.7427L25.3142 21.1166C25.0829 20.8852 24.7691 20.7552 24.4419 20.7552C24.1148 20.7552 23.801 20.8852 23.5696 21.1166L18.9436 25.7427Z" fill="black"/>
</svg>
