<svg width="48" height="48" viewBox="0 0 48 48" fill="none" xmlns="http://www.w3.org/2000/svg">
<rect x="0.5" y="0.5" width="47" height="47" rx="11.5" stroke="#2D3440"/>
<path d="M23.9997 17.3375C25.4965 17.3375 26.6663 16.1625 26.6663 14.6625C26.6663 13.1875 25.4714 12 23.9997 12C22.5406 12 21.333 13.1875 21.333 14.6625C21.333 16.125 22.5406 17.3375 23.9997 17.3375ZM23.9997 26.6375C25.4965 26.6375 26.6663 25.475 26.6663 24C26.6663 22.5375 25.4714 21.35 23.9997 21.35C22.5406 21.35 21.333 22.5375 21.333 24C21.333 25.45 22.5406 26.6375 23.9997 26.6375ZM23.9997 36C25.4965 36 26.6663 34.825 26.6663 33.3375C26.6663 31.85 25.4714 30.6625 23.9997 30.6625C22.5406 30.6625 21.333 31.85 21.333 33.3375C21.333 34.7875 22.5406 36 23.9997 36Z" fill="black"/>
</svg>
