<svg width="48" height="48" viewBox="0 0 48 48" fill="none" xmlns="http://www.w3.org/2000/svg">
<rect x="0.5" y="0.5" width="47" height="47" rx="11.5" stroke="#2D3440"/>
<path fill-rule="evenodd" clip-rule="evenodd" d="M29.9444 22.3934V19.1667C29.9444 17.4178 28.5267 16 26.7778 16H15.1667C13.4178 16 12 17.4178 12 19.1667V29.7222C12 31.4711 13.4178 32.8889 15.1667 32.8889H26.7778C28.5267 32.8889 29.9444 31.4711 29.9444 29.7222V26.4957L35.6642 30.5813C35.986 30.8111 36.4092 30.8418 36.7608 30.6609C37.1124 30.48 37.3333 30.1177 37.3333 29.7223V19.1668C37.3333 18.7714 37.1124 18.4091 36.7608 18.2282C36.4092 18.0473 35.986 18.078 35.6642 18.3078L29.9444 22.3934ZM14.1111 19.1667C14.1111 18.5837 14.5837 18.1111 15.1667 18.1111H26.7778C27.3607 18.1111 27.8333 18.5837 27.8333 19.1667V29.7222C27.8333 30.3052 27.3607 30.7778 26.7778 30.7778H15.1667C14.5837 30.7778 14.1111 30.3052 14.1111 29.7222V19.1667ZM35.2222 27.6712L30.7049 24.4446L35.2222 21.2179V27.6712Z" fill="black"/>
</svg>
